<mxfile host="app.diagrams.net" modified="2022-09-13T11:34:47.921Z" agent="5.0 (X11; Linux x86_64) AppleWebKit/537.36 (KHTML, like Gecko) Chrome/103.0.0.0 Safari/537.36" etag="tatXhdUDZ98_o7aEyd-N" version="20.2.7" type="github">
  <diagram id="wjeXScoZAjYG2I4b2xbk" name="第 1 页">
    <mxGraphModel dx="1367" dy="540" grid="1" gridSize="10" guides="1" tooltips="1" connect="1" arrows="1" fold="1" page="1" pageScale="1" pageWidth="827" pageHeight="1169" math="0" shadow="0">
      <root>
        <mxCell id="0" />
        <mxCell id="1" parent="0" />
        <mxCell id="aS5N9NK5Ezvjyif94fvz-13" style="edgeStyle=orthogonalEdgeStyle;rounded=0;orthogonalLoop=1;jettySize=auto;html=1;entryX=0;entryY=0.5;entryDx=0;entryDy=0;" edge="1" parent="1" source="aS5N9NK5Ezvjyif94fvz-3" target="aS5N9NK5Ezvjyif94fvz-10">
          <mxGeometry relative="1" as="geometry" />
        </mxCell>
        <mxCell id="aS5N9NK5Ezvjyif94fvz-14" style="edgeStyle=orthogonalEdgeStyle;rounded=0;orthogonalLoop=1;jettySize=auto;html=1;" edge="1" parent="1" source="aS5N9NK5Ezvjyif94fvz-3" target="aS5N9NK5Ezvjyif94fvz-4">
          <mxGeometry relative="1" as="geometry" />
        </mxCell>
        <mxCell id="aS5N9NK5Ezvjyif94fvz-15" style="edgeStyle=orthogonalEdgeStyle;rounded=0;orthogonalLoop=1;jettySize=auto;html=1;" edge="1" parent="1" source="aS5N9NK5Ezvjyif94fvz-3" target="aS5N9NK5Ezvjyif94fvz-6">
          <mxGeometry relative="1" as="geometry" />
        </mxCell>
        <mxCell id="aS5N9NK5Ezvjyif94fvz-16" style="edgeStyle=orthogonalEdgeStyle;rounded=0;orthogonalLoop=1;jettySize=auto;html=1;entryX=0;entryY=0.5;entryDx=0;entryDy=0;" edge="1" parent="1" source="aS5N9NK5Ezvjyif94fvz-3" target="aS5N9NK5Ezvjyif94fvz-12">
          <mxGeometry relative="1" as="geometry" />
        </mxCell>
        <mxCell id="aS5N9NK5Ezvjyif94fvz-3" value="Dict" style="rounded=1;whiteSpace=wrap;html=1;fillColor=#f5f5f5;strokeColor=#666666;fontColor=#333333;" vertex="1" parent="1">
          <mxGeometry x="170" y="360" width="120" height="60" as="geometry" />
        </mxCell>
        <mxCell id="aS5N9NK5Ezvjyif94fvz-4" value="img" style="rounded=1;whiteSpace=wrap;html=1;fillColor=#d5e8d4;strokeColor=#82b366;" vertex="1" parent="1">
          <mxGeometry x="370" y="307" width="120" height="60" as="geometry" />
        </mxCell>
        <mxCell id="aS5N9NK5Ezvjyif94fvz-6" value="points" style="whiteSpace=wrap;html=1;rounded=1;fillColor=#ffe6cc;strokeColor=#d79b00;" vertex="1" parent="1">
          <mxGeometry x="370" y="403" width="120" height="60" as="geometry" />
        </mxCell>
        <mxCell id="aS5N9NK5Ezvjyif94fvz-10" value="loss" style="whiteSpace=wrap;html=1;rounded=1;fillColor=#dae8fc;strokeColor=#6c8ebf;" vertex="1" parent="1">
          <mxGeometry x="370" y="210" width="120" height="60" as="geometry" />
        </mxCell>
        <mxCell id="aS5N9NK5Ezvjyif94fvz-12" value="boxes" style="whiteSpace=wrap;html=1;rounded=1;fillColor=#fff2cc;strokeColor=#d6b656;" vertex="1" parent="1">
          <mxGeometry x="370" y="500" width="120" height="60" as="geometry" />
        </mxCell>
      </root>
    </mxGraphModel>
  </diagram>
</mxfile>
